<svg t="1651463905680" class="icon" viewBox="0 0 1024 1024" version="1.1" xmlns="http://www.w3.org/2000/svg" p-id="2305" width="200" height="200"><path d="M512 152.34c-51.9 0-94.12 42.22-94.12 94.1 0 51.9 42.22 94.12 94.12 94.12 51.88 0 94.1-42.22 94.1-94.12 0-51.88-42.22-94.1-94.1-94.1z m0 168.22c-40.88 0-74.12-33.24-74.12-74.12 0-40.86 33.24-74.1 74.12-74.1 40.86 0 74.1 33.24 74.1 74.1 0 40.88-33.24 74.12-74.1 74.12z" fill="#23130D" p-id="2306"></path><path d="M942.28 939v-39.38c0-5.54-4.46-10-10-10h-30.44v-25.04c0-24.82-20.2-45-45.02-45h-13.02v-298.2c11.8-5.02 20.1-16.72 20.1-30.34v-18.46h28.12c27.72 0 50.26-22.56 50.26-50.28v-40.26c0-5.52-4.46-10-10-10h-23.98L518.52 36.28l-0.22-0.16c-0.28-0.24-0.58-0.42-0.88-0.62-0.26-0.16-0.52-0.34-0.78-0.48-0.3-0.16-0.62-0.28-0.92-0.4-0.3-0.12-0.58-0.26-0.88-0.34-0.32-0.1-0.64-0.14-0.94-0.2-0.32-0.06-0.64-0.14-0.96-0.16-0.32-0.04-0.64-0.02-0.96-0.02-0.32 0-0.62-0.02-0.94 0.02-0.32 0.02-0.64 0.1-0.96 0.16-0.32 0.06-0.62 0.1-0.92 0.2-0.32 0.08-0.6 0.22-0.9 0.34-0.32 0.12-0.62 0.24-0.92 0.4-0.26 0.14-0.52 0.32-0.78 0.48-0.3 0.2-0.6 0.4-0.88 0.62l-0.22 0.16L115.7 372.04h-24c-5.54 0-10 4.48-10 10v40.26c0 27.72 22.54 50.28 50.26 50.28h28.12v18.46c0 13.62 8.3 25.32 20.1 30.34v298.2h-13.02c-24.82 0-45.02 20.18-45.02 45v25.04H91.7c-5.54 0-10 4.46-10 10v40.24c0 27.74 22.54 50.3 50.26 50.3h760.06c27.44 0 49.48-21.44 50.26-48.82 0.02-0.48 0.04-1 0.04-1.48 0-0.28-0.02-0.56-0.04-0.86z m-85.46-99.42c13.8 0 25.02 11.22 25.02 25v25.02H681.06v-25.02c0-13.78 11.22-25 25.02-25h150.74z m-269.46-20h-13.02v-298.2c11.8-5.02 20.1-16.72 20.1-30.34v-18.46h104.56v18.46c0 13.62 8.3 25.32 20.1 30.34v298.2h-13.02c-24.82 0-45.02 20.18-45.02 45v25.04h-28.68v-25.04c0-24.82-20.2-45-45.02-45z m-269.46 0h-13.02V521.4c11.8-5.04 20.1-16.74 20.1-30.36v-18.46h104.56v18.46c0 13.62 8.3 25.32 20.1 30.34v298.2h-13.02c-24.82 0-45.02 20.18-45.02 45v25.04h-28.68v-25.04c0-24.82-20.2-45-45.02-45z m144.64-315.56c-7.16 0-13-5.82-13-12.98v-18.46h124.9v18.46c0 7.16-5.84 12.98-13 12.98h-98.9z m91.8 20v295.56h-84.7V524.02h84.7zM411.6 864.58c0-13.78 11.22-25 25.02-25h150.74c13.8 0 25.02 11.22 25.02 25v25.02H411.6v-25.02z m327.5-45V524.02h84.7v295.56h-84.7z m104.8-328.54c0 7.16-5.84 12.98-13 12.98H732c-7.16 0-13-5.82-13-12.98v-18.46h124.9v18.46zM512 57.04l365.64 315H146.34L512 57.04zM170.1 452.58h-0.02H131.96c-16.68 0-30.26-13.58-30.26-30.28v-30.26h820.58v30.26c0 16.7-13.56 30.28-30.44 30.28H709.02h-0.02-269.44-0.02H170.1z m9.98 38.46v-18.46h124.9v18.46c0 7.16-5.84 12.98-13 12.98H193.08c-7.16 0-13-5.82-13-12.98z m104.8 32.98v295.56h-84.7V524.02h84.7zM142.14 864.58c0-13.78 11.22-25 25.02-25h150.74c13.8 0 25.02 11.22 25.02 25v25.02H142.14v-25.02z m780.14 76.12c-0.44 16.52-13.72 29.44-30.24 29.46H131.96c-8.36 0-15.92-3.4-21.4-8.9a30.188 30.188 0 0 1-8.86-21.4v-30.24h299.88c0.02 0 0.04-0.02 0.06-0.02h220.7c0.02 0 0.04 0.02 0.06 0.02h299.88v31.08z" fill="#23130D" p-id="2307"></path><path d="M342.92 864.58v25.02H142.14v-25.02c0-13.78 11.22-25 25.02-25h150.74c13.8 0 25.02 11.22 25.02 25z" fill="#E59D89" p-id="2308"></path><path d="M342.92 864.58v20c0-13.78-11.22-25-25.02-25H167.16c-13.8 0-25.02 11.22-25.02 25v-20c0-13.78 11.22-25 25.02-25h150.74c13.8 0 25.02 11.22 25.02 25z" opacity=".2" p-id="2309"></path><path d="M612.38 864.58v25.02H411.6v-25.02c0-13.78 11.22-25 25.02-25h150.74c13.8 0 25.02 11.22 25.02 25zM881.84 864.58v25.02H681.06v-25.02c0-13.78 11.22-25 25.02-25h150.74c13.8 0 25.02 11.22 25.02 25z" fill="#E59D89" p-id="2310"></path><path d="M922.28 909.62v31.08c-0.44 16.52-13.72 29.44-30.24 29.46H131.96c-8.36 0-15.92-3.4-21.4-8.9a30.188 30.188 0 0 1-8.86-21.4v-30.24h299.88c0.02 0 0.04-0.02 0.06-0.02h220.7c0.02 0 0.04 0.02 0.06 0.02h299.88z" fill="#F8D3C9" p-id="2311"></path><path d="M739.1 524.02h84.7v295.56h-84.7z" fill="#CC7B5A" p-id="2312"></path><path d="M843.9 472.58v18.46c0 7.16-5.84 12.98-13 12.98H732c-7.16 0-13-5.82-13-12.98v-18.46h124.9zM574.44 472.58v18.46c0 7.16-5.84 12.98-13 12.98h-98.9c-7.16 0-13-5.82-13-12.98v-18.46h124.9zM304.98 472.58v18.46c0 7.16-5.84 12.98-13 12.98H193.08c-7.16 0-13-5.82-13-12.98v-18.46h124.9z" fill="#E59D89" p-id="2313"></path><path d="M180.08 472.58h124.9v15.72H180.08zM449.54 472.58h124.9v15.72h-124.9zM719 472.58h124.9v15.72H719z" opacity=".2" p-id="2314"></path><path d="M200.18 524.02h84.7v295.56h-84.7zM469.64 524.02h84.7v295.56h-84.7zM512 57.04L146.34 372.04h731.3L512 57.04z m0 283.52c-51.9 0-94.12-42.22-94.12-94.12 0-51.88 42.22-94.1 94.12-94.1 51.88 0 94.1 42.22 94.1 94.1 0 51.9-42.22 94.12-94.1 94.12z" fill="#CC7B5A" p-id="2315"></path><path d="M813.8 534.02v275.56h-64.7V534.02h64.7m10-10h-84.7v295.56h84.7V524.02zM274.88 534.02v275.56h-64.7V534.02h64.7m10-10h-84.7v295.56h84.7V524.02zM544.34 534.02v275.56h-64.7V534.02h64.7m10-10h-84.7v295.56h84.7V524.02zM512 70.24l338.712 291.8H173.27L512 70.24m0 280.32c57.4 0 104.1-46.708 104.1-104.12 0-57.4-46.7-104.1-104.1-104.1-57.412 0-104.12 46.7-104.12 104.1 0 57.412 46.708 104.12 104.12 104.12m0-293.52L146.34 372.04h731.3L512 57.04z m0 283.52c-51.9 0-94.12-42.22-94.12-94.12 0-51.88 42.22-94.1 94.12-94.1 51.88 0 94.1 42.22 94.1 94.1 0 51.9-42.22 94.12-94.1 94.12z" opacity=".2" p-id="2316"></path><path d="M922.28 392.04v30.26c0 16.7-13.56 30.28-30.44 30.28H709.02h-0.02-269.44-0.02H170.1h-0.02H131.96c-16.68 0-30.26-13.58-30.26-30.28v-30.26h820.58z" fill="#F8D3C9" p-id="2317"></path><path d="M922.28 392.04v30.26c0 16.7-13.56 30.28-30.44 30.28H709.02h-0.02-269.44-0.02H170.1h-0.02H131.96c-16.68 0-30.26-13.58-30.26-30.28v-30.26c0 16.7 13.58 30.26 30.26 30.26H891.84c16.88 0 30.44-13.56 30.44-30.26zM922.28 909.61v30.26c0 16.7-13.56 30.28-30.44 30.28H709.02h-0.02-269.44-0.02H170.1h-0.02H131.96c-16.68 0-30.26-13.58-30.26-30.28v-30.26c0 16.7 13.58 30.26 30.26 30.26H891.84c16.88 0 30.44-13.56 30.44-30.26zM612.4 864.58v20c0-13.78-11.22-25-25.02-25h-150.74c-13.8 0-25.02 11.22-25.02 25v-20c0-13.78 11.22-25 25.02-25h150.74c13.8 0 25.02 11.22 25.02 25zM881.88 864.58v20c0-13.78-11.22-25-25.02-25h-150.74c-13.8 0-25.02 11.22-25.02 25v-20c0-13.78 11.22-25 25.02-25h150.74c13.8 0 25.02 11.22 25.02 25zM200.18 819.58h31.04c19.44-3.08 37.54-9.14 53.66-18.88v-11c-23.88 16-52.92 22.78-84.7 23.18v6.7z m0-19.44c31.64-1.2 60.62-8.8 84.7-25.42v-11.5c-23.44 18.16-52.54 26.38-84.7 27.7v9.22z m0-22.12c31.98-2.14 61.02-11.16 84.7-29.92v-12.12c-22.96 20.64-52.12 30.46-84.7 32.8v9.24z m0-22.32c32.34-3.18 61.44-13.78 84.7-34.9v-12.9c-22.38 23.42-51.64 35.06-84.7 38.52v9.28z m0-31.88v9.34c32.8-4.32 61.98-16.7 84.7-40.5v-13.96c-21.66 26.7-51.04 40.42-84.7 45.12z m0-22.82v9.4c33.34-5.58 62.6-19.98 84.7-46.88v-15.44c-20.78 30.64-50.3 46.78-84.7 52.92z m0-23.08v9.46c33.98-7 63.38-23.72 84.7-54.3v-17.78c-1.66 3.32-3.48 6.46-5.42 9.4-19.54 29.68-47.08 46.14-79.28 53.22z m0-23.36v9.56c32.4-8.02 60.28-25.48 80.46-56.14 1.5-2.26 2.92-4.64 4.24-7.1v-22.98c-3.18 9.38-7.16 17.76-11.94 25.02-18.22 27.66-43.36 43.84-72.76 51.64z m66.24-73.42c-16.86 25.6-39.64 41.34-66.24 49.74v9.68c29.62-8.68 55.12-25.78 73.94-54.36 4.16-6.3 7.74-13.4 10.76-21.2v-35.54c-3.38 20.68-9.54 38.12-18.46 51.68z m1.18-16.72c7.34-11.16 12.92-24.74 16.74-40.4h-9.4c-3.56 13.66-8.58 25.52-15.04 35.34-15.46 23.48-35.92 38.66-59.72 47.48v9.88c26.84-9.22 50-25.84 67.42-52.3z m-6.52-21.78c3.7-5.6 6.94-11.82 9.72-18.62h-10c-2.22 4.88-4.68 9.4-7.42 13.56-14.04 21.3-32.18 35.78-53.2 44.88v10.04c24.08-9.58 44.9-25.56 60.9-49.86z m-8.66-18.62h-11.46c-11.48 14.84-25.26 25.82-40.78 33.62v10.3c20.3-9.32 38.04-23.54 52.24-43.92z m-39.82 0a115.908 115.908 0 0 1-12.42 8.32v10.6c9.6-5.06 18.58-11.32 26.82-18.92h-14.4zM469.66 819.58h31.04c19.44-3.08 37.54-9.14 53.66-18.88v-11c-23.88 16-52.92 22.78-84.7 23.18v6.7z m0-19.44c31.64-1.2 60.62-8.8 84.7-25.42v-11.5c-23.44 18.16-52.54 26.38-84.7 27.7v9.22z m0-22.12c31.98-2.14 61.02-11.16 84.7-29.92v-12.12c-22.96 20.64-52.12 30.46-84.7 32.8v9.24z m0-22.32c32.34-3.18 61.44-13.78 84.7-34.9v-12.9c-22.38 23.42-51.64 35.06-84.7 38.52v9.28z m0-31.88v9.34c32.8-4.32 61.98-16.7 84.7-40.5v-13.96c-21.66 26.7-51.04 40.42-84.7 45.12z m0-22.82v9.4c33.34-5.58 62.6-19.98 84.7-46.88v-15.44c-20.78 30.64-50.3 46.78-84.7 52.92z m0-23.08v9.46c33.98-7 63.38-23.72 84.7-54.3v-17.78c-1.66 3.32-3.48 6.46-5.42 9.4-19.54 29.68-47.08 46.14-79.28 53.22z m0-23.36v9.56c32.4-8.02 60.28-25.48 80.46-56.14 1.5-2.26 2.92-4.64 4.24-7.1v-22.98c-3.18 9.38-7.16 17.76-11.94 25.02-18.22 27.66-43.36 43.84-72.76 51.64z m66.24-73.42c-16.86 25.6-39.64 41.34-66.24 49.74v9.68c29.62-8.68 55.12-25.78 73.94-54.36 4.16-6.3 7.74-13.4 10.76-21.2v-35.54c-3.38 20.68-9.54 38.12-18.46 51.68z m1.18-16.72c7.34-11.16 12.92-24.74 16.74-40.4h-9.4c-3.56 13.66-8.58 25.52-15.04 35.34-15.46 23.48-35.92 38.66-59.72 47.48v9.88c26.84-9.22 50-25.84 67.42-52.3z m-6.52-21.78c3.7-5.6 6.94-11.82 9.72-18.62h-10c-2.22 4.88-4.68 9.4-7.42 13.56-14.04 21.3-32.18 35.78-53.2 44.88v10.04c24.08-9.58 44.9-25.56 60.9-49.86z m-8.66-18.62h-11.46c-11.48 14.84-25.26 25.82-40.78 33.62v10.3c20.3-9.32 38.04-23.54 52.24-43.92z m-39.82 0a115.908 115.908 0 0 1-12.42 8.32v10.6c9.6-5.06 18.58-11.32 26.82-18.92h-14.4zM739.14 819.58h31.04c19.44-3.08 37.54-9.14 53.66-18.88v-11c-23.88 16-52.92 22.78-84.7 23.18v6.7z m0-19.44c31.64-1.2 60.62-8.8 84.7-25.42v-11.5c-23.44 18.16-52.54 26.38-84.7 27.7v9.22z m0-22.12c31.98-2.14 61.02-11.16 84.7-29.92v-12.12c-22.96 20.64-52.12 30.46-84.7 32.8v9.24z m0-22.32c32.34-3.18 61.44-13.78 84.7-34.9v-12.9c-22.38 23.42-51.64 35.06-84.7 38.52v9.28z m0-31.88v9.34c32.8-4.32 61.98-16.7 84.7-40.5v-13.96c-21.66 26.7-51.04 40.42-84.7 45.12z m0-22.82v9.4c33.34-5.58 62.6-19.98 84.7-46.88v-15.44c-20.78 30.64-50.3 46.78-84.7 52.92z m0-23.08v9.46c33.98-7 63.38-23.72 84.7-54.3v-17.78c-1.66 3.32-3.48 6.46-5.42 9.4-19.54 29.68-47.08 46.14-79.28 53.22z m0-23.36v9.56c32.4-8.02 60.28-25.48 80.46-56.14 1.5-2.26 2.92-4.64 4.24-7.1v-22.98c-3.18 9.38-7.16 17.76-11.94 25.02-18.22 27.66-43.36 43.84-72.76 51.64z m66.24-73.42c-16.86 25.6-39.64 41.34-66.24 49.74v9.68c29.62-8.68 55.12-25.78 73.94-54.36 4.16-6.3 7.74-13.4 10.76-21.2v-35.54c-3.38 20.68-9.54 38.12-18.46 51.68z m1.18-16.72c7.34-11.16 12.92-24.74 16.74-40.4h-9.4c-3.56 13.66-8.58 25.52-15.04 35.34-15.46 23.48-35.92 38.66-59.72 47.48v9.88c26.84-9.22 50-25.84 67.42-52.3z m-6.52-21.78c3.7-5.6 6.94-11.82 9.72-18.62h-10c-2.22 4.88-4.68 9.4-7.42 13.56-14.04 21.3-32.18 35.78-53.2 44.88v10.04c24.08-9.58 44.9-25.56 60.9-49.86z m-8.66-18.62h-11.46c-11.48 14.84-25.26 25.82-40.78 33.62v10.3c20.3-9.32 38.04-23.54 52.24-43.92z m-39.82 0a115.908 115.908 0 0 1-12.42 8.32v10.6c9.6-5.06 18.58-11.32 26.82-18.92h-14.4z" opacity=".2" p-id="2318"></path></svg>